<svg xmlns="http://www.w3.org/2000/svg" viewBox="0 0 1200 360" role="img" aria-labelledby="title desc"><title id="title">Център за разработка</title><desc id="desc">Център за разработка — AstroByte Development portfolio visual.</desc><defs><linearGradient id="shell" x2="1" y2="1"><stop stop-color="#111C2D"/><stop offset=".58" stop-color="#090F1B"/><stop offset="1" stop-color="#121C36"/></linearGradient><radialGradient id="glow"><stop stop-color="#3B82F6" stop-opacity=".30"/><stop offset="1" stop-color="#3B82F6" stop-opacity="0"/></radialGradient><linearGradient id="accent"><stop stop-color="#3B82F6"/><stop offset="1" stop-color="#22D3EE"/></linearGradient><clipPath id="clip"><rect width="1200" height="360" rx="24"/></clipPath></defs><rect width="1200" height="360" rx="24" fill="url(#shell)"/><rect x="1" y="1" width="1198" height="358" rx="23" fill="none" stroke="#344B67"/><path d="M24 1H1176" stroke="url(#accent)" opacity=".78"/><g clip-path="url(#clip)"><text x="30" y="45" fill="#3B82F6" font-family="Arial,Helvetica,sans-serif" font-size="18" font-weight="700" text-anchor="start" letter-spacing="2">02 / ЦЕНТЪР ЗА РАЗРАБОТКА</text><rect x="30" y="67" width="270" height="280" rx="14" fill="#111C2D" stroke="#3B82F6"/><rect x="31" y="68" width="268" height="80" rx="13" fill="#3B82F6" opacity=".11"/><path d="M48 70H282" stroke="#3B82F6" stroke-width="3"/><text x="50" y="104" fill="#3B82F6" font-family="Arial,Helvetica,sans-serif" font-size="16" font-weight="700" text-anchor="start" letter-spacing="0">01 / ТЕКУЩ ФОКУС</text><path d="M50 122L280 122" stroke="#344B67" stroke-width="2" fill="none"/><circle cx="57" cy="154" r="4" fill="#3B82F6"/><text x="72" y="161" fill="#F2F6FF" font-family="Arial,Helvetica,sans-serif" font-size="17" font-weight="600" text-anchor="start" letter-spacing="0">Инструменти</text><circle cx="57" cy="196" r="4" fill="#3B82F6"/><text x="72" y="203" fill="#F2F6FF" font-family="Arial,Helvetica,sans-serif" font-size="17" font-weight="600" text-anchor="start" letter-spacing="0">FiveM инфраструктура</text><circle cx="57" cy="238" r="4" fill="#3B82F6"/><text x="72" y="245" fill="#F2F6FF" font-family="Arial,Helvetica,sans-serif" font-size="17" font-weight="600" text-anchor="start" letter-spacing="0">Уеб системи</text><circle cx="57" cy="280" r="4" fill="#3B82F6"/><text x="72" y="287" fill="#F2F6FF" font-family="Arial,Helvetica,sans-serif" font-size="17" font-weight="600" text-anchor="start" letter-spacing="0">macOS приложение</text><rect x="321" y="67" width="270" height="280" rx="14" fill="#111C2D" stroke="#22D3EE"/><rect x="322" y="68" width="268" height="80" rx="13" fill="#22D3EE" opacity=".11"/><path d="M339 70H573" stroke="#22D3EE" stroke-width="3"/><text x="341" y="104" fill="#22D3EE" font-family="Arial,Helvetica,sans-serif" font-size="16" font-weight="700" text-anchor="start" letter-spacing="0">02 / ЕЗИЦИ</text><path d="M341 122L571 122" stroke="#344B67" stroke-width="2" fill="none"/><circle cx="348" cy="154" r="4" fill="#22D3EE"/><text x="363" y="161" fill="#F2F6FF" font-family="Arial,Helvetica,sans-serif" font-size="17" font-weight="600" text-anchor="start" letter-spacing="0">Rust</text><circle cx="348" cy="196" r="4" fill="#22D3EE"/><text x="363" y="203" fill="#F2F6FF" font-family="Arial,Helvetica,sans-serif" font-size="17" font-weight="600" text-anchor="start" letter-spacing="0">Lua</text><circle cx="348" cy="238" r="4" fill="#22D3EE"/><text x="363" y="245" fill="#F2F6FF" font-family="Arial,Helvetica,sans-serif" font-size="17" font-weight="600" text-anchor="start" letter-spacing="0">TypeScript</text><circle cx="348" cy="280" r="4" fill="#22D3EE"/><text x="363" y="287" fill="#F2F6FF" font-family="Arial,Helvetica,sans-serif" font-size="17" font-weight="600" text-anchor="start" letter-spacing="0">Python</text><rect x="612" y="67" width="270" height="280" rx="14" fill="#111C2D" stroke="#8B5CF6"/><rect x="613" y="68" width="268" height="80" rx="13" fill="#8B5CF6" opacity=".11"/><path d="M630 70H864" stroke="#8B5CF6" stroke-width="3"/><text x="632" y="104" fill="#8B5CF6" font-family="Arial,Helvetica,sans-serif" font-size="16" font-weight="700" text-anchor="start" letter-spacing="0">03 / ИНЖЕНЕРСТВО</text><path d="M632 122L862 122" stroke="#344B67" stroke-width="2" fill="none"/><circle cx="639" cy="154" r="4" fill="#8B5CF6"/><text x="654" y="161" fill="#F2F6FF" font-family="Arial,Helvetica,sans-serif" font-size="17" font-weight="600" text-anchor="start" letter-spacing="0">Сигурност</text><circle cx="639" cy="196" r="4" fill="#8B5CF6"/><text x="654" y="203" fill="#F2F6FF" font-family="Arial,Helvetica,sans-serif" font-size="17" font-weight="600" text-anchor="start" letter-spacing="0">Архитектура</text><circle cx="639" cy="238" r="4" fill="#8B5CF6"/><text x="654" y="245" fill="#F2F6FF" font-family="Arial,Helvetica,sans-serif" font-size="17" font-weight="600" text-anchor="start" letter-spacing="0">Тестове</text><circle cx="639" cy="280" r="4" fill="#8B5CF6"/><text x="654" y="287" fill="#F2F6FF" font-family="Arial,Helvetica,sans-serif" font-size="17" font-weight="600" text-anchor="start" letter-spacing="0">Автоматизация</text><rect x="903" y="67" width="270" height="280" rx="14" fill="#111C2D" stroke="#22C55E"/><rect x="904" y="68" width="268" height="80" rx="13" fill="#22C55E" opacity=".11"/><path d="M921 70H1155" stroke="#22C55E" stroke-width="3"/><text x="923" y="104" fill="#22C55E" font-family="Arial,Helvetica,sans-serif" font-size="16" font-weight="700" text-anchor="start" letter-spacing="0">04 / РАБОТЕН ПРОЦЕС</text><path d="M923 122L1153 122" stroke="#344B67" stroke-width="2" fill="none"/><circle cx="930" cy="154" r="4" fill="#22C55E"/><text x="945" y="161" fill="#F2F6FF" font-family="Arial,Helvetica,sans-serif" font-size="17" font-weight="600" text-anchor="start" letter-spacing="0">Разработка</text><circle cx="930" cy="196" r="4" fill="#22C55E"/><text x="945" y="203" fill="#F2F6FF" font-family="Arial,Helvetica,sans-serif" font-size="17" font-weight="600" text-anchor="start" letter-spacing="0">Проверка</text><circle cx="930" cy="238" r="4" fill="#22C55E"/><text x="945" y="245" fill="#F2F6FF" font-family="Arial,Helvetica,sans-serif" font-size="17" font-weight="600" text-anchor="start" letter-spacing="0">Преглед</text><circle cx="930" cy="280" r="4" fill="#22C55E"/><text x="945" y="287" fill="#F2F6FF" font-family="Arial,Helvetica,sans-serif" font-size="17" font-weight="600" text-anchor="start" letter-spacing="0">Доставка</text></g></svg>
