<svg xmlns="http://www.w3.org/2000/svg" viewBox="0 0 600 780" role="img" aria-labelledby="title desc"><title id="title">Бизнес регистър system map</title><desc id="desc">Qbox ресурс с таблет интерфейс, MySQL записи, локализация и журнал, описани в хранилището. Diagram, not a product screenshot.</desc><defs><linearGradient id="shell" x2="1" y2="1"><stop stop-color="#0D1728"/><stop offset=".65" stop-color="#080E19"/><stop offset="1" stop-color="#101E31"/></linearGradient><linearGradient id="accent"><stop stop-color="#F59E0B"/><stop offset="1" stop-color="#22D3EE"/></linearGradient><radialGradient id="aura"><stop stop-color="#F59E0B" stop-opacity=".3"/><stop offset="1" stop-color="#F59E0B" stop-opacity="0"/></radialGradient><clipPath id="clip"><rect width="600" height="780" rx="28"/></clipPath></defs><rect width="600" height="780" rx="28" fill="url(#shell)"/><rect x="1" y="1" width="598" height="778" rx="27" fill="none" stroke="#34506E"/><path d="M28 1H572" stroke="url(#accent)" stroke-width="2" opacity=".8"/><g clip-path="url(#clip)"><g opacity=".25"><path d="M0 0L0 780" stroke="#34506E" stroke-width="1" fill="none"/><path d="M44 0L44 780" stroke="#34506E" stroke-width="1" fill="none"/><path d="M88 0L88 780" stroke="#34506E" stroke-width="1" fill="none"/><path d="M132 0L132 780" stroke="#34506E" stroke-width="1" fill="none"/><path d="M176 0L176 780" stroke="#34506E" stroke-width="1" fill="none"/><path d="M220 0L220 780" stroke="#34506E" stroke-width="1" fill="none"/><path d="M264 0L264 780" stroke="#34506E" stroke-width="1" fill="none"/><path d="M308 0L308 780" stroke="#34506E" stroke-width="1" fill="none"/><path d="M352 0L352 780" stroke="#34506E" stroke-width="1" fill="none"/><path d="M396 0L396 780" stroke="#34506E" stroke-width="1" fill="none"/><path d="M440 0L440 780" stroke="#34506E" stroke-width="1" fill="none"/><path d="M484 0L484 780" stroke="#34506E" stroke-width="1" fill="none"/><path d="M528 0L528 780" stroke="#34506E" stroke-width="1" fill="none"/><path d="M572 0L572 780" stroke="#34506E" stroke-width="1" fill="none"/><path d="M0 0L600 0" stroke="#34506E" stroke-width="1" fill="none"/><path d="M0 44L600 44" stroke="#34506E" stroke-width="1" fill="none"/><path d="M0 88L600 88" stroke="#34506E" stroke-width="1" fill="none"/><path d="M0 132L600 132" stroke="#34506E" stroke-width="1" fill="none"/><path d="M0 176L600 176" stroke="#34506E" stroke-width="1" fill="none"/><path d="M0 220L600 220" stroke="#34506E" stroke-width="1" fill="none"/><path d="M0 264L600 264" stroke="#34506E" stroke-width="1" fill="none"/><path d="M0 308L600 308" stroke="#34506E" stroke-width="1" fill="none"/><path d="M0 352L600 352" stroke="#34506E" stroke-width="1" fill="none"/><path d="M0 396L600 396" stroke="#34506E" stroke-width="1" fill="none"/><path d="M0 440L600 440" stroke="#34506E" stroke-width="1" fill="none"/><path d="M0 484L600 484" stroke="#34506E" stroke-width="1" fill="none"/><path d="M0 528L600 528" stroke="#34506E" stroke-width="1" fill="none"/><path d="M0 572L600 572" stroke="#34506E" stroke-width="1" fill="none"/><path d="M0 616L600 616" stroke="#34506E" stroke-width="1" fill="none"/><path d="M0 660L600 660" stroke="#34506E" stroke-width="1" fill="none"/><path d="M0 704L600 704" stroke="#34506E" stroke-width="1" fill="none"/><path d="M0 748L600 748" stroke="#34506E" stroke-width="1" fill="none"/></g><ellipse cx="530" cy="95" rx="260" ry="160" fill="url(#aura)"/><text x="40" y="49" fill="#F59E0B" font-family="Arial,Helvetica,sans-serif" font-size="18" font-weight="800" text-anchor="start" letter-spacing="2">02 / ОСНОВНА СИСТЕМА</text><text x="40" y="105" fill="#F3F8FF" font-family="Arial,Helvetica,sans-serif" font-size="43" font-weight="800" text-anchor="start" letter-spacing="0">Бизнес регистър</text><text x="42" y="148" fill="#F59E0B" font-family="Arial,Helvetica,sans-serif" font-size="19" font-weight="700" text-anchor="start" letter-spacing="1">ЗАПИСИ И ВАЛИДАЦИЯ</text><rect x="31" y="188" width="538" height="525" rx="22" fill="#101E31" stroke="#F59E0B" opacity="1"/><rect x="32" y="189" width="536" height="90" rx="21" fill="#F59E0B" opacity=".075"/><path d="M49 190L551 190" stroke="#F59E0B" stroke-width="3" fill="none"/><text x="57" y="223" fill="#B5C8DD" font-family="Arial,Helvetica,sans-serif" font-size="16" font-weight="700" text-anchor="start" letter-spacing="1">СИСТЕМНА КАРТА / ПОТВЪРДЕНИ ЧАСТИ</text><rect x="61" y="254" width="478" height="72" rx="13" fill="#152941" stroke="#3B82F6" opacity="1"/><rect x="62" y="255" width="476" height="70" rx="12" fill="#3B82F6" opacity=".075"/><path d="M79 256L521 256" stroke="#3B82F6" stroke-width="3" fill="none"/><circle cx="83" cy="290" r="5" fill="#3B82F6" stroke="none" stroke-width="1" opacity="1"/><text x="98" y="296" fill="#F3F8FF" font-family="Arial,Helvetica,sans-serif" font-size="20" font-weight="700" text-anchor="start" letter-spacing="0">ТАБЛЕТ</text><path d="M300 331L300 360" stroke="#3B82F6" stroke-width="2" fill="none"/><path d="M295 351L300 360L305 351" stroke="#3B82F6" stroke-width="2" fill="none"/><rect x="61" y="369" width="478" height="72" rx="13" fill="#152941" stroke="#EF4444" opacity="1"/><rect x="62" y="370" width="476" height="70" rx="12" fill="#EF4444" opacity=".075"/><path d="M79 371L521 371" stroke="#EF4444" stroke-width="3" fill="none"/><circle cx="83" cy="405" r="5" fill="#EF4444" stroke="none" stroke-width="1" opacity="1"/><text x="98" y="411" fill="#F3F8FF" font-family="Arial,Helvetica,sans-serif" font-size="20" font-weight="700" text-anchor="start" letter-spacing="0">СЪРВЪРНА ПРОВЕРКА</text><path d="M300 446L300 475" stroke="#EF4444" stroke-width="2" fill="none"/><path d="M295 466L300 475L305 466" stroke="#EF4444" stroke-width="2" fill="none"/><rect x="61" y="484" width="478" height="72" rx="13" fill="#152941" stroke="#22D3EE" opacity="1"/><rect x="62" y="485" width="476" height="70" rx="12" fill="#22D3EE" opacity=".075"/><path d="M79 486L521 486" stroke="#22D3EE" stroke-width="3" fill="none"/><circle cx="83" cy="520" r="5" fill="#22D3EE" stroke="none" stroke-width="1" opacity="1"/><text x="98" y="526" fill="#F3F8FF" font-family="Arial,Helvetica,sans-serif" font-size="20" font-weight="700" text-anchor="start" letter-spacing="0">ЗАПИСИ</text><path d="M300 561L300 590" stroke="#22D3EE" stroke-width="2" fill="none"/><path d="M295 581L300 590L305 581" stroke="#22D3EE" stroke-width="2" fill="none"/><rect x="61" y="599" width="478" height="72" rx="13" fill="#152941" stroke="#22C55E" opacity="1"/><rect x="62" y="600" width="476" height="70" rx="12" fill="#22C55E" opacity=".075"/><path d="M79 601L521 601" stroke="#22C55E" stroke-width="3" fill="none"/><circle cx="83" cy="635" r="5" fill="#22C55E" stroke="none" stroke-width="1" opacity="1"/><text x="98" y="641" fill="#F3F8FF" font-family="Arial,Helvetica,sans-serif" font-size="20" font-weight="700" text-anchor="start" letter-spacing="0">ЖУРНАЛ</text><text x="40" y="742" fill="#F59E0B" font-family="Arial,Helvetica,sans-serif" font-size="17" font-weight="700" text-anchor="start" letter-spacing="1">ОРГ. / ПРИНОС</text></g></svg>
