<svg xmlns="http://www.w3.org/2000/svg" viewBox="0 0 1200 455" role="img" aria-labelledby="t d">
<title id="t">Development activity</title><desc id="d">Public GitHub contribution calendar with totals and daily intensity</desc>
<rect width="1200" height="455" rx="24" fill="#080E19"/>
<rect x="1" y="1" width="1198" height="453" rx="23" fill="none" stroke="#34506E"/>
<text x="30" y="44" fill="#22D3EE" font-family="Arial,sans-serif" font-size="19" font-weight="700" letter-spacing="2">08 / DEVELOPMENT ACTIVITY</text>
<path d="M44 79H286" stroke="#3B82F6" stroke-width="3"/>
<rect x="30" y="78" width="270" height="110" rx="13" fill="#101E31" stroke="#3B82F6"/>
<text x="47" y="111" fill="#B5C8DD" font-family="Arial,sans-serif" font-size="15" font-weight="700">CONTRIBUTIONS</text>
<text x="47" y="161" fill="#3B82F6" font-family="Arial,sans-serif" font-size="44" font-weight="700">17</text>
<path d="M334 79H576" stroke="#22C55E" stroke-width="3"/>
<rect x="320" y="78" width="270" height="110" rx="13" fill="#101E31" stroke="#22C55E"/>
<text x="337" y="111" fill="#B5C8DD" font-family="Arial,sans-serif" font-size="15" font-weight="700">ACTIVE DAYS</text>
<text x="337" y="161" fill="#22C55E" font-family="Arial,sans-serif" font-size="44" font-weight="700">3</text>
<path d="M624 79H866" stroke="#22C55E" stroke-width="3"/>
<rect x="610" y="78" width="270" height="110" rx="13" fill="#101E31" stroke="#22C55E"/>
<text x="627" y="111" fill="#B5C8DD" font-family="Arial,sans-serif" font-size="15" font-weight="700">CURRENT STREAK</text>
<text x="627" y="161" fill="#22C55E" font-family="Arial,sans-serif" font-size="44" font-weight="700">2</text>
<path d="M914 79H1156" stroke="#22C55E" stroke-width="3"/>
<rect x="900" y="78" width="270" height="110" rx="13" fill="#101E31" stroke="#22C55E"/>
<text x="917" y="111" fill="#B5C8DD" font-family="Arial,sans-serif" font-size="15" font-weight="700">LONGEST STREAK</text>
<text x="917" y="161" fill="#22C55E" font-family="Arial,sans-serif" font-size="44" font-weight="700">2</text>
<text x="30" y="243" fill="#B5C8DD" font-family="Arial,sans-serif" font-size="16">Last contribution: 2026-10-05</text>
<rect x="30" y="268" width="11" height="11" rx="2" fill="#213147"/>
<rect x="30" y="283" width="11" height="11" rx="2" fill="#213147"/>
<rect x="30" y="298" width="11" height="11" rx="2" fill="#213147"/>
<rect x="30" y="313" width="11" height="11" rx="2" fill="#213147"/>
<rect x="30" y="328" width="11" height="11" rx="2" fill="#213147"/>
<rect x="30" y="343" width="11" height="11" rx="2" fill="#213147"/>
<rect x="30" y="358" width="11" height="11" rx="2" fill="#213147"/>
<rect x="45" y="268" width="11" height="11" rx="2" fill="#213147"/>
<rect x="45" y="283" width="11" height="11" rx="2" fill="#213147"/>
<rect x="45" y="298" width="11" height="11" rx="2" fill="#213147"/>
<rect x="45" y="313" width="11" height="11" rx="2" fill="#213147"/>
<rect x="45" y="328" width="11" height="11" rx="2" fill="#213147"/>
<rect x="45" y="343" width="11" height="11" rx="2" fill="#213147"/>
<rect x="45" y="358" width="11" height="11" rx="2" fill="#213147"/>
<rect x="60" y="268" width="11" height="11" rx="2" fill="#213147"/>
<rect x="60" y="283" width="11" height="11" rx="2" fill="#213147"/>
<rect x="60" y="298" width="11" height="11" rx="2" fill="#213147"/>
<rect x="60" y="313" width="11" height="11" rx="2" fill="#213147"/>
<rect x="60" y="328" width="11" height="11" rx="2" fill="#213147"/>
<rect x="60" y="343" width="11" height="11" rx="2" fill="#213147"/>
<rect x="60" y="358" width="11" height="11" rx="2" fill="#213147"/>
<rect x="75" y="268" width="11" height="11" rx="2" fill="#213147"/>
<rect x="75" y="283" width="11" height="11" rx="2" fill="#213147"/>
<rect x="75" y="298" width="11" height="11" rx="2" fill="#213147"/>
<rect x="75" y="313" width="11" height="11" rx="2" fill="#213147"/>
<rect x="75" y="328" width="11" height="11" rx="2" fill="#213147"/>
<rect x="75" y="343" width="11" height="11" rx="2" fill="#213147"/>
<rect x="75" y="358" width="11" height="11" rx="2" fill="#213147"/>
<rect x="90" y="268" width="11" height="11" rx="2" fill="#213147"/>
<rect x="90" y="283" width="11" height="11" rx="2" fill="#213147"/>
<rect x="90" y="298" width="11" height="11" rx="2" fill="#213147"/>
<rect x="90" y="313" width="11" height="11" rx="2" fill="#213147"/>
<rect x="90" y="328" width="11" height="11" rx="2" fill="#213147"/>
<rect x="90" y="343" width="11" height="11" rx="2" fill="#213147"/>
<rect x="90" y="358" width="11" height="11" rx="2" fill="#213147"/>
<rect x="105" y="268" width="11" height="11" rx="2" fill="#213147"/>
<rect x="105" y="283" width="11" height="11" rx="2" fill="#213147"/>
<rect x="105" y="298" width="11" height="11" rx="2" fill="#213147"/>
<rect x="105" y="313" width="11" height="11" rx="2" fill="#213147"/>
<rect x="105" y="328" width="11" height="11" rx="2" fill="#213147"/>
<rect x="105" y="343" width="11" height="11" rx="2" fill="#213147"/>
<rect x="105" y="358" width="11" height="11" rx="2" fill="#213147"/>
<rect x="120" y="268" width="11" height="11" rx="2" fill="#213147"/>
<rect x="120" y="283" width="11" height="11" rx="2" fill="#213147"/>
<rect x="120" y="298" width="11" height="11" rx="2" fill="#213147"/>
<rect x="120" y="313" width="11" height="11" rx="2" fill="#213147"/>
<rect x="120" y="328" width="11" height="11" rx="2" fill="#213147"/>
<rect x="120" y="343" width="11" height="11" rx="2" fill="#213147"/>
<rect x="120" y="358" width="11" height="11" rx="2" fill="#213147"/>
<rect x="135" y="268" width="11" height="11" rx="2" fill="#213147"/>
<rect x="135" y="283" width="11" height="11" rx="2" fill="#213147"/>
<rect x="135" y="298" width="11" height="11" rx="2" fill="#213147"/>
<rect x="135" y="313" width="11" height="11" rx="2" fill="#213147"/>
<rect x="135" y="328" width="11" height="11" rx="2" fill="#213147"/>
<rect x="135" y="343" width="11" height="11" rx="2" fill="#213147"/>
<rect x="135" y="358" width="11" height="11" rx="2" fill="#213147"/>
<rect x="150" y="268" width="11" height="11" rx="2" fill="#213147"/>
<rect x="150" y="283" width="11" height="11" rx="2" fill="#213147"/>
<rect x="150" y="298" width="11" height="11" rx="2" fill="#213147"/>
<rect x="150" y="313" width="11" height="11" rx="2" fill="#213147"/>
<rect x="150" y="328" width="11" height="11" rx="2" fill="#213147"/>
<rect x="150" y="343" width="11" height="11" rx="2" fill="#213147"/>
<rect x="150" y="358" width="11" height="11" rx="2" fill="#213147"/>
<rect x="165" y="268" width="11" height="11" rx="2" fill="#213147"/>
<rect x="165" y="283" width="11" height="11" rx="2" fill="#213147"/>
<rect x="165" y="298" width="11" height="11" rx="2" fill="#213147"/>
<rect x="165" y="313" width="11" height="11" rx="2" fill="#213147"/>
<rect x="165" y="328" width="11" height="11" rx="2" fill="#213147"/>
<rect x="165" y="343" width="11" height="11" rx="2" fill="#213147"/>
<rect x="165" y="358" width="11" height="11" rx="2" fill="#213147"/>
<rect x="180" y="268" width="11" height="11" rx="2" fill="#213147"/>
<rect x="180" y="283" width="11" height="11" rx="2" fill="#213147"/>
<rect x="180" y="298" width="11" height="11" rx="2" fill="#213147"/>
<rect x="180" y="313" width="11" height="11" rx="2" fill="#213147"/>
<rect x="180" y="328" width="11" height="11" rx="2" fill="#213147"/>
<rect x="180" y="343" width="11" height="11" rx="2" fill="#213147"/>
<rect x="180" y="358" width="11" height="11" rx="2" fill="#213147"/>
<rect x="195" y="268" width="11" height="11" rx="2" fill="#213147"/>
<rect x="195" y="283" width="11" height="11" rx="2" fill="#213147"/>
<rect x="195" y="298" width="11" height="11" rx="2" fill="#213147"/>
<rect x="195" y="313" width="11" height="11" rx="2" fill="#213147"/>
<rect x="195" y="328" width="11" height="11" rx="2" fill="#213147"/>
<rect x="195" y="343" width="11" height="11" rx="2" fill="#213147"/>
<rect x="195" y="358" width="11" height="11" rx="2" fill="#213147"/>
<rect x="210" y="268" width="11" height="11" rx="2" fill="#213147"/>
<rect x="210" y="283" width="11" height="11" rx="2" fill="#213147"/>
<rect x="210" y="298" width="11" height="11" rx="2" fill="#213147"/>
<rect x="210" y="313" width="11" height="11" rx="2" fill="#213147"/>
<rect x="210" y="328" width="11" height="11" rx="2" fill="#213147"/>
<rect x="210" y="343" width="11" height="11" rx="2" fill="#213147"/>
<rect x="210" y="358" width="11" height="11" rx="2" fill="#213147"/>
<rect x="225" y="268" width="11" height="11" rx="2" fill="#213147"/>
<rect x="225" y="283" width="11" height="11" rx="2" fill="#213147"/>
<rect x="225" y="298" width="11" height="11" rx="2" fill="#213147"/>
<rect x="225" y="313" width="11" height="11" rx="2" fill="#213147"/>
<rect x="225" y="328" width="11" height="11" rx="2" fill="#213147"/>
<rect x="225" y="343" width="11" height="11" rx="2" fill="#213147"/>
<rect x="225" y="358" width="11" height="11" rx="2" fill="#213147"/>
<rect x="240" y="268" width="11" height="11" rx="2" fill="#213147"/>
<rect x="240" y="283" width="11" height="11" rx="2" fill="#213147"/>
<rect x="240" y="298" width="11" height="11" rx="2" fill="#213147"/>
<rect x="240" y="313" width="11" height="11" rx="2" fill="#213147"/>
<rect x="240" y="328" width="11" height="11" rx="2" fill="#213147"/>
<rect x="240" y="343" width="11" height="11" rx="2" fill="#213147"/>
<rect x="240" y="358" width="11" height="11" rx="2" fill="#213147"/>
<rect x="255" y="268" width="11" height="11" rx="2" fill="#213147"/>
<rect x="255" y="283" width="11" height="11" rx="2" fill="#213147"/>
<rect x="255" y="298" width="11" height="11" rx="2" fill="#213147"/>
<rect x="255" y="313" width="11" height="11" rx="2" fill="#213147"/>
<rect x="255" y="328" width="11" height="11" rx="2" fill="#213147"/>
<rect x="255" y="343" width="11" height="11" rx="2" fill="#213147"/>
<rect x="255" y="358" width="11" height="11" rx="2" fill="#213147"/>
<rect x="270" y="268" width="11" height="11" rx="2" fill="#213147"/>
<rect x="270" y="283" width="11" height="11" rx="2" fill="#213147"/>
<rect x="270" y="298" width="11" height="11" rx="2" fill="#213147"/>
<rect x="270" y="313" width="11" height="11" rx="2" fill="#213147"/>
<rect x="270" y="328" width="11" height="11" rx="2" fill="#213147"/>
<rect x="270" y="343" width="11" height="11" rx="2" fill="#213147"/>
<rect x="270" y="358" width="11" height="11" rx="2" fill="#213147"/>
<rect x="285" y="268" width="11" height="11" rx="2" fill="#213147"/>
<rect x="285" y="283" width="11" height="11" rx="2" fill="#213147"/>
<rect x="285" y="298" width="11" height="11" rx="2" fill="#213147"/>
<rect x="285" y="313" width="11" height="11" rx="2" fill="#213147"/>
<rect x="285" y="328" width="11" height="11" rx="2" fill="#213147"/>
<rect x="285" y="343" width="11" height="11" rx="2" fill="#213147"/>
<rect x="285" y="358" width="11" height="11" rx="2" fill="#213147"/>
<rect x="300" y="268" width="11" height="11" rx="2" fill="#213147"/>
<rect x="300" y="283" width="11" height="11" rx="2" fill="#213147"/>
<rect x="300" y="298" width="11" height="11" rx="2" fill="#213147"/>
<rect x="300" y="313" width="11" height="11" rx="2" fill="#213147"/>
<rect x="300" y="328" width="11" height="11" rx="2" fill="#213147"/>
<rect x="300" y="343" width="11" height="11" rx="2" fill="#213147"/>
<rect x="300" y="358" width="11" height="11" rx="2" fill="#213147"/>
<rect x="315" y="268" width="11" height="11" rx="2" fill="#213147"/>
<rect x="315" y="283" width="11" height="11" rx="2" fill="#213147"/>
<rect x="315" y="298" width="11" height="11" rx="2" fill="#213147"/>
<rect x="315" y="313" width="11" height="11" rx="2" fill="#213147"/>
<rect x="315" y="328" width="11" height="11" rx="2" fill="#213147"/>
<rect x="315" y="343" width="11" height="11" rx="2" fill="#213147"/>
<rect x="315" y="358" width="11" height="11" rx="2" fill="#213147"/>
<rect x="330" y="268" width="11" height="11" rx="2" fill="#213147"/>
<rect x="330" y="283" width="11" height="11" rx="2" fill="#213147"/>
<rect x="330" y="298" width="11" height="11" rx="2" fill="#213147"/>
<rect x="330" y="313" width="11" height="11" rx="2" fill="#213147"/>
<rect x="330" y="328" width="11" height="11" rx="2" fill="#213147"/>
<rect x="330" y="343" width="11" height="11" rx="2" fill="#213147"/>
<rect x="330" y="358" width="11" height="11" rx="2" fill="#213147"/>
<rect x="345" y="268" width="11" height="11" rx="2" fill="#213147"/>
<rect x="345" y="283" width="11" height="11" rx="2" fill="#213147"/>
<rect x="345" y="298" width="11" height="11" rx="2" fill="#213147"/>
<rect x="345" y="313" width="11" height="11" rx="2" fill="#213147"/>
<rect x="345" y="328" width="11" height="11" rx="2" fill="#213147"/>
<rect x="345" y="343" width="11" height="11" rx="2" fill="#213147"/>
<rect x="345" y="358" width="11" height="11" rx="2" fill="#213147"/>
<rect x="360" y="268" width="11" height="11" rx="2" fill="#213147"/>
<rect x="360" y="283" width="11" height="11" rx="2" fill="#213147"/>
<rect x="360" y="298" width="11" height="11" rx="2" fill="#213147"/>
<rect x="360" y="313" width="11" height="11" rx="2" fill="#213147"/>
<rect x="360" y="328" width="11" height="11" rx="2" fill="#213147"/>
<rect x="360" y="343" width="11" height="11" rx="2" fill="#213147"/>
<rect x="360" y="358" width="11" height="11" rx="2" fill="#213147"/>
<rect x="375" y="268" width="11" height="11" rx="2" fill="#213147"/>
<rect x="375" y="283" width="11" height="11" rx="2" fill="#213147"/>
<rect x="375" y="298" width="11" height="11" rx="2" fill="#213147"/>
<rect x="375" y="313" width="11" height="11" rx="2" fill="#213147"/>
<rect x="375" y="328" width="11" height="11" rx="2" fill="#213147"/>
<rect x="375" y="343" width="11" height="11" rx="2" fill="#213147"/>
<rect x="375" y="358" width="11" height="11" rx="2" fill="#213147"/>
<rect x="390" y="268" width="11" height="11" rx="2" fill="#213147"/>
<rect x="390" y="283" width="11" height="11" rx="2" fill="#213147"/>
<rect x="390" y="298" width="11" height="11" rx="2" fill="#213147"/>
<rect x="390" y="313" width="11" height="11" rx="2" fill="#213147"/>
<rect x="390" y="328" width="11" height="11" rx="2" fill="#213147"/>
<rect x="390" y="343" width="11" height="11" rx="2" fill="#213147"/>
<rect x="390" y="358" width="11" height="11" rx="2" fill="#213147"/>
<rect x="405" y="268" width="11" height="11" rx="2" fill="#213147"/>
<rect x="405" y="283" width="11" height="11" rx="2" fill="#213147"/>
<rect x="405" y="298" width="11" height="11" rx="2" fill="#213147"/>
<rect x="405" y="313" width="11" height="11" rx="2" fill="#213147"/>
<rect x="405" y="328" width="11" height="11" rx="2" fill="#213147"/>
<rect x="405" y="343" width="11" height="11" rx="2" fill="#213147"/>
<rect x="405" y="358" width="11" height="11" rx="2" fill="#213147"/>
<rect x="420" y="268" width="11" height="11" rx="2" fill="#213147"/>
<rect x="420" y="283" width="11" height="11" rx="2" fill="#213147"/>
<rect x="420" y="298" width="11" height="11" rx="2" fill="#213147"/>
<rect x="420" y="313" width="11" height="11" rx="2" fill="#213147"/>
<rect x="420" y="328" width="11" height="11" rx="2" fill="#213147"/>
<rect x="420" y="343" width="11" height="11" rx="2" fill="#213147"/>
<rect x="420" y="358" width="11" height="11" rx="2" fill="#213147"/>
<rect x="435" y="268" width="11" height="11" rx="2" fill="#213147"/>
<rect x="435" y="283" width="11" height="11" rx="2" fill="#213147"/>
<rect x="435" y="298" width="11" height="11" rx="2" fill="#213147"/>
<rect x="435" y="313" width="11" height="11" rx="2" fill="#213147"/>
<rect x="435" y="328" width="11" height="11" rx="2" fill="#213147"/>
<rect x="435" y="343" width="11" height="11" rx="2" fill="#213147"/>
<rect x="435" y="358" width="11" height="11" rx="2" fill="#213147"/>
<rect x="450" y="268" width="11" height="11" rx="2" fill="#213147"/>
<rect x="450" y="283" width="11" height="11" rx="2" fill="#213147"/>
<rect x="450" y="298" width="11" height="11" rx="2" fill="#213147"/>
<rect x="450" y="313" width="11" height="11" rx="2" fill="#213147"/>
<rect x="450" y="328" width="11" height="11" rx="2" fill="#213147"/>
<rect x="450" y="343" width="11" height="11" rx="2" fill="#213147"/>
<rect x="450" y="358" width="11" height="11" rx="2" fill="#213147"/>
<rect x="465" y="268" width="11" height="11" rx="2" fill="#213147"/>
<rect x="465" y="283" width="11" height="11" rx="2" fill="#213147"/>
<rect x="465" y="298" width="11" height="11" rx="2" fill="#213147"/>
<rect x="465" y="313" width="11" height="11" rx="2" fill="#213147"/>
<rect x="465" y="328" width="11" height="11" rx="2" fill="#213147"/>
<rect x="465" y="343" width="11" height="11" rx="2" fill="#213147"/>
<rect x="465" y="358" width="11" height="11" rx="2" fill="#213147"/>
<rect x="480" y="268" width="11" height="11" rx="2" fill="#213147"/>
<rect x="480" y="283" width="11" height="11" rx="2" fill="#213147"/>
<rect x="480" y="298" width="11" height="11" rx="2" fill="#213147"/>
<rect x="480" y="313" width="11" height="11" rx="2" fill="#213147"/>
<rect x="480" y="328" width="11" height="11" rx="2" fill="#213147"/>
<rect x="480" y="343" width="11" height="11" rx="2" fill="#213147"/>
<rect x="480" y="358" width="11" height="11" rx="2" fill="#213147"/>
<rect x="495" y="268" width="11" height="11" rx="2" fill="#213147"/>
<rect x="495" y="283" width="11" height="11" rx="2" fill="#213147"/>
<rect x="495" y="298" width="11" height="11" rx="2" fill="#213147"/>
<rect x="495" y="313" width="11" height="11" rx="2" fill="#213147"/>
<rect x="495" y="328" width="11" height="11" rx="2" fill="#213147"/>
<rect x="495" y="343" width="11" height="11" rx="2" fill="#213147"/>
<rect x="495" y="358" width="11" height="11" rx="2" fill="#213147"/>
<rect x="510" y="268" width="11" height="11" rx="2" fill="#213147"/>
<rect x="510" y="283" width="11" height="11" rx="2" fill="#213147"/>
<rect x="510" y="298" width="11" height="11" rx="2" fill="#213147"/>
<rect x="510" y="313" width="11" height="11" rx="2" fill="#213147"/>
<rect x="510" y="328" width="11" height="11" rx="2" fill="#213147"/>
<rect x="510" y="343" width="11" height="11" rx="2" fill="#213147"/>
<rect x="510" y="358" width="11" height="11" rx="2" fill="#213147"/>
<rect x="525" y="268" width="11" height="11" rx="2" fill="#213147"/>
<rect x="525" y="283" width="11" height="11" rx="2" fill="#213147"/>
<rect x="525" y="298" width="11" height="11" rx="2" fill="#213147"/>
<rect x="525" y="313" width="11" height="11" rx="2" fill="#213147"/>
<rect x="525" y="328" width="11" height="11" rx="2" fill="#213147"/>
<rect x="525" y="343" width="11" height="11" rx="2" fill="#213147"/>
<rect x="525" y="358" width="11" height="11" rx="2" fill="#213147"/>
<rect x="540" y="268" width="11" height="11" rx="2" fill="#213147"/>
<rect x="540" y="283" width="11" height="11" rx="2" fill="#213147"/>
<rect x="540" y="298" width="11" height="11" rx="2" fill="#213147"/>
<rect x="540" y="313" width="11" height="11" rx="2" fill="#213147"/>
<rect x="540" y="328" width="11" height="11" rx="2" fill="#213147"/>
<rect x="540" y="343" width="11" height="11" rx="2" fill="#213147"/>
<rect x="540" y="358" width="11" height="11" rx="2" fill="#213147"/>
<rect x="555" y="268" width="11" height="11" rx="2" fill="#213147"/>
<rect x="555" y="283" width="11" height="11" rx="2" fill="#213147"/>
<rect x="555" y="298" width="11" height="11" rx="2" fill="#213147"/>
<rect x="555" y="313" width="11" height="11" rx="2" fill="#213147"/>
<rect x="555" y="328" width="11" height="11" rx="2" fill="#213147"/>
<rect x="555" y="343" width="11" height="11" rx="2" fill="#213147"/>
<rect x="555" y="358" width="11" height="11" rx="2" fill="#213147"/>
<rect x="570" y="268" width="11" height="11" rx="2" fill="#213147"/>
<rect x="570" y="283" width="11" height="11" rx="2" fill="#213147"/>
<rect x="570" y="298" width="11" height="11" rx="2" fill="#213147"/>
<rect x="570" y="313" width="11" height="11" rx="2" fill="#213147"/>
<rect x="570" y="328" width="11" height="11" rx="2" fill="#213147"/>
<rect x="570" y="343" width="11" height="11" rx="2" fill="#213147"/>
<rect x="570" y="358" width="11" height="11" rx="2" fill="#213147"/>
<rect x="585" y="268" width="11" height="11" rx="2" fill="#213147"/>
<rect x="585" y="283" width="11" height="11" rx="2" fill="#213147"/>
<rect x="585" y="298" width="11" height="11" rx="2" fill="#213147"/>
<rect x="585" y="313" width="11" height="11" rx="2" fill="#213147"/>
<rect x="585" y="328" width="11" height="11" rx="2" fill="#213147"/>
<rect x="585" y="343" width="11" height="11" rx="2" fill="#213147"/>
<rect x="585" y="358" width="11" height="11" rx="2" fill="#213147"/>
<rect x="600" y="268" width="11" height="11" rx="2" fill="#213147"/>
<rect x="600" y="283" width="11" height="11" rx="2" fill="#213147"/>
<rect x="600" y="298" width="11" height="11" rx="2" fill="#213147"/>
<rect x="600" y="313" width="11" height="11" rx="2" fill="#213147"/>
<rect x="600" y="328" width="11" height="11" rx="2" fill="#213147"/>
<rect x="600" y="343" width="11" height="11" rx="2" fill="#213147"/>
<rect x="600" y="358" width="11" height="11" rx="2" fill="#213147"/>
<rect x="615" y="268" width="11" height="11" rx="2" fill="#213147"/>
<rect x="615" y="283" width="11" height="11" rx="2" fill="#213147"/>
<rect x="615" y="298" width="11" height="11" rx="2" fill="#213147"/>
<rect x="615" y="313" width="11" height="11" rx="2" fill="#213147"/>
<rect x="615" y="328" width="11" height="11" rx="2" fill="#213147"/>
<rect x="615" y="343" width="11" height="11" rx="2" fill="#213147"/>
<rect x="615" y="358" width="11" height="11" rx="2" fill="#213147"/>
<rect x="630" y="268" width="11" height="11" rx="2" fill="#213147"/>
<rect x="630" y="283" width="11" height="11" rx="2" fill="#213147"/>
<rect x="630" y="298" width="11" height="11" rx="2" fill="#213147"/>
<rect x="630" y="313" width="11" height="11" rx="2" fill="#213147"/>
<rect x="630" y="328" width="11" height="11" rx="2" fill="#213147"/>
<rect x="630" y="343" width="11" height="11" rx="2" fill="#213147"/>
<rect x="630" y="358" width="11" height="11" rx="2" fill="#213147"/>
<rect x="645" y="268" width="11" height="11" rx="2" fill="#213147"/>
<rect x="645" y="283" width="11" height="11" rx="2" fill="#213147"/>
<rect x="645" y="298" width="11" height="11" rx="2" fill="#213147"/>
<rect x="645" y="313" width="11" height="11" rx="2" fill="#213147"/>
<rect x="645" y="328" width="11" height="11" rx="2" fill="#213147"/>
<rect x="645" y="343" width="11" height="11" rx="2" fill="#213147"/>
<rect x="645" y="358" width="11" height="11" rx="2" fill="#213147"/>
<rect x="660" y="268" width="11" height="11" rx="2" fill="#213147"/>
<rect x="660" y="283" width="11" height="11" rx="2" fill="#213147"/>
<rect x="660" y="298" width="11" height="11" rx="2" fill="#213147"/>
<rect x="660" y="313" width="11" height="11" rx="2" fill="#213147"/>
<rect x="660" y="328" width="11" height="11" rx="2" fill="#213147"/>
<rect x="660" y="343" width="11" height="11" rx="2" fill="#213147"/>
<rect x="660" y="358" width="11" height="11" rx="2" fill="#213147"/>
<rect x="675" y="268" width="11" height="11" rx="2" fill="#213147"/>
<rect x="675" y="283" width="11" height="11" rx="2" fill="#213147"/>
<rect x="675" y="298" width="11" height="11" rx="2" fill="#213147"/>
<rect x="675" y="313" width="11" height="11" rx="2" fill="#213147"/>
<rect x="675" y="328" width="11" height="11" rx="2" fill="#213147"/>
<rect x="675" y="343" width="11" height="11" rx="2" fill="#213147"/>
<rect x="675" y="358" width="11" height="11" rx="2" fill="#213147"/>
<rect x="690" y="268" width="11" height="11" rx="2" fill="#213147"/>
<rect x="690" y="283" width="11" height="11" rx="2" fill="#213147"/>
<rect x="690" y="298" width="11" height="11" rx="2" fill="#213147"/>
<rect x="690" y="313" width="11" height="11" rx="2" fill="#213147"/>
<rect x="690" y="328" width="11" height="11" rx="2" fill="#213147"/>
<rect x="690" y="343" width="11" height="11" rx="2" fill="#213147"/>
<rect x="690" y="358" width="11" height="11" rx="2" fill="#213147"/>
<rect x="705" y="268" width="11" height="11" rx="2" fill="#213147"/>
<rect x="705" y="283" width="11" height="11" rx="2" fill="#213147"/>
<rect x="705" y="298" width="11" height="11" rx="2" fill="#213147"/>
<rect x="705" y="313" width="11" height="11" rx="2" fill="#213147"/>
<rect x="705" y="328" width="11" height="11" rx="2" fill="#213147"/>
<rect x="705" y="343" width="11" height="11" rx="2" fill="#213147"/>
<rect x="705" y="358" width="11" height="11" rx="2" fill="#213147"/>
<rect x="720" y="268" width="11" height="11" rx="2" fill="#22D3EE"/>
<rect x="720" y="283" width="11" height="11" rx="2" fill="#213147"/>
<rect x="720" y="298" width="11" height="11" rx="2" fill="#213147"/>
<rect x="720" y="313" width="11" height="11" rx="2" fill="#213147"/>
<rect x="720" y="328" width="11" height="11" rx="2" fill="#213147"/>
<rect x="720" y="343" width="11" height="11" rx="2" fill="#213147"/>
<rect x="720" y="358" width="11" height="11" rx="2" fill="#213147"/>
<rect x="735" y="268" width="11" height="11" rx="2" fill="#213147"/>
<rect x="735" y="283" width="11" height="11" rx="2" fill="#213147"/>
<rect x="735" y="298" width="11" height="11" rx="2" fill="#213147"/>
<rect x="735" y="313" width="11" height="11" rx="2" fill="#213147"/>
<rect x="735" y="328" width="11" height="11" rx="2" fill="#213147"/>
<rect x="735" y="343" width="11" height="11" rx="2" fill="#213147"/>
<rect x="735" y="358" width="11" height="11" rx="2" fill="#213147"/>
<rect x="750" y="268" width="11" height="11" rx="2" fill="#213147"/>
<rect x="750" y="283" width="11" height="11" rx="2" fill="#213147"/>
<rect x="750" y="298" width="11" height="11" rx="2" fill="#213147"/>
<rect x="750" y="313" width="11" height="11" rx="2" fill="#213147"/>
<rect x="750" y="328" width="11" height="11" rx="2" fill="#213147"/>
<rect x="750" y="343" width="11" height="11" rx="2" fill="#213147"/>
<rect x="750" y="358" width="11" height="11" rx="2" fill="#213147"/>
<rect x="765" y="268" width="11" height="11" rx="2" fill="#213147"/>
<rect x="765" y="283" width="11" height="11" rx="2" fill="#213147"/>
<rect x="765" y="298" width="11" height="11" rx="2" fill="#213147"/>
<rect x="765" y="313" width="11" height="11" rx="2" fill="#213147"/>
<rect x="765" y="328" width="11" height="11" rx="2" fill="#213147"/>
<rect x="765" y="343" width="11" height="11" rx="2" fill="#213147"/>
<rect x="765" y="358" width="11" height="11" rx="2" fill="#213147"/>
<rect x="780" y="268" width="11" height="11" rx="2" fill="#213147"/>
<rect x="780" y="283" width="11" height="11" rx="2" fill="#213147"/>
<rect x="780" y="298" width="11" height="11" rx="2" fill="#213147"/>
<rect x="780" y="313" width="11" height="11" rx="2" fill="#213147"/>
<rect x="780" y="328" width="11" height="11" rx="2" fill="#213147"/>
<rect x="780" y="343" width="11" height="11" rx="2" fill="#213147"/>
<rect x="780" y="358" width="11" height="11" rx="2" fill="#213147"/>
<rect x="795" y="268" width="11" height="11" rx="2" fill="#213147"/>
<rect x="795" y="283" width="11" height="11" rx="2" fill="#213147"/>
<rect x="795" y="298" width="11" height="11" rx="2" fill="#213147"/>
<rect x="795" y="313" width="11" height="11" rx="2" fill="#213147"/>
<rect x="795" y="328" width="11" height="11" rx="2" fill="#213147"/>
<rect x="795" y="343" width="11" height="11" rx="2" fill="#213147"/>
<rect x="795" y="358" width="11" height="11" rx="2" fill="#213147"/>
<rect x="810" y="268" width="11" height="11" rx="2" fill="#2856A4"/>
<rect x="810" y="283" width="11" height="11" rx="2" fill="#8B5CF6"/>
<rect x="810" y="298" width="11" height="11" rx="2" fill="#213147"/>
<text x="30" y="398" fill="#B5C8DD" font-family="Arial,sans-serif" font-size="15">Rolling yearly window</text>
<text x="30" y="428" fill="#8FA8C2" font-family="Arial,sans-serif" font-size="14">GitHub public calendar · 2026-10-06 UTC</text>
</svg>
